<svg xmlns="http://www.w3.org/2000/svg" xmlns:xlink="http://www.w3.org/1999/xlink" viewBox="0 0 307.72 279.44"><defs><style>.cls-1{isolation:isolate;}.cls-2{fill:url(#linear-gradient);}.cls-3{opacity:0.52;mix-blend-mode:multiply;fill:url(#linear-gradient-2);}.cls-4{fill:url(#linear-gradient-3);}.cls-5{fill:url(#linear-gradient-4);}.cls-6{fill:url(#linear-gradient-5);}</style><linearGradient id="linear-gradient" x1="123.74" y1="69.7" x2="288.5" y2="407.61" gradientUnits="userSpaceOnUse"><stop offset="0" stop-color="#15a8ce"/><stop offset="0.28" stop-color="#3f85bf"/><stop offset="0.6" stop-color="#6863b0"/><stop offset="0.85" stop-color="#814ea7"/><stop offset="1" stop-color="#8a46a4"/></linearGradient><linearGradient id="linear-gradient-2" x1="187.07" y1="183.8" x2="188.25" y2="230.92" gradientUnits="userSpaceOnUse"><stop offset="0"/><stop offset="1" stop-color="#fff" stop-opacity="0"/></linearGradient><linearGradient id="linear-gradient-3" x1="243.36" y1="-11.86" x2="-45.86" y2="242.41" gradientUnits="userSpaceOnUse"><stop offset="0" stop-color="#8a46a4"/><stop offset="1" stop-color="#15a8ce"/></linearGradient><linearGradient id="linear-gradient-4" x1="283.62" y1="11.18" x2="-6.14" y2="176.02" gradientUnits="userSpaceOnUse"><stop offset="0" stop-color="#fff"/><stop offset="0.01" stop-color="#fff" stop-opacity="0.96"/><stop offset="0.04" stop-color="#fff" stop-opacity="0.78"/><stop offset="0.07" stop-color="#fff" stop-opacity="0.61"/><stop offset="0.11" stop-color="#fff" stop-opacity="0.47"/><stop offset="0.15" stop-color="#fff" stop-opacity="0.34"/><stop offset="0.2" stop-color="#fff" stop-opacity="0.23"/><stop offset="0.25" stop-color="#fff" stop-opacity="0.15"/><stop offset="0.31" stop-color="#fff" stop-opacity="0.08"/><stop offset="0.39" stop-color="#fff" stop-opacity="0.03"/><stop offset="0.49" stop-color="#fff" stop-opacity="0.01"/><stop offset="0.78" stop-color="#fff" stop-opacity="0"/></linearGradient><linearGradient id="linear-gradient-5" x1="51.68" y1="102.76" x2="142.5" y2="225.38" gradientUnits="userSpaceOnUse"><stop offset="0" stop-color="#fff"/><stop offset="0.01" stop-color="#fff" stop-opacity="0.96"/><stop offset="0.05" stop-color="#fff" stop-opacity="0.78"/><stop offset="0.09" stop-color="#fff" stop-opacity="0.61"/><stop offset="0.14" stop-color="#fff" stop-opacity="0.47"/><stop offset="0.2" stop-color="#fff" stop-opacity="0.34"/><stop offset="0.25" stop-color="#fff" stop-opacity="0.23"/><stop offset="0.32" stop-color="#fff" stop-opacity="0.15"/><stop offset="0.4" stop-color="#fff" stop-opacity="0.08"/><stop offset="0.49" stop-color="#fff" stop-opacity="0.03"/><stop offset="0.63" stop-color="#fff" stop-opacity="0.01"/><stop offset="1" stop-color="#fff" stop-opacity="0"/></linearGradient></defs><title>03</title><g class="cls-1"><g id="Layer_1" data-name="Layer 1"><path class="cls-2" d="M283.12,279.44,177.06,124.65l-62.7,42.95,63.81,93.12a43,43,0,0,0,35.51,18.72Z"/><polygon class="cls-3" points="217.72 184.01 125.79 184.12 172.72 252.44 249.52 230.55 217.72 184.01"/><path class="cls-4" d="M79.23,241.66a37.77,37.77,0,0,1-37.77,37.78H3.23V193.2a85.08,85.08,0,0,1,85.08-85.07H215.18c8.64,0,16.09-6.63,16.51-15.26a16.08,16.08,0,0,0-16-16.87H62.48A43.06,43.06,0,0,1,23.35,50.9L0,0H214.48c50.68,0,92.74,40.47,93.23,91.15a92.14,92.14,0,0,1-92.06,93H88.31a9.08,9.08,0,0,0-9.08,9.07Z"/><path class="cls-5" d="M217.91.07H42.78L111.4,76H215.67l.81,0h14.73c.73,0,1.46,0,2.18,0,56.27,1.89,69.13,79.85,17.1,101.23a92.63,92.63,0,0,0,44.05-37.78,91.47,91.47,0,0,0,13.18-48.35C307.24,41.61,267.06,1.83,217.91.07Z"/><path class="cls-6" d="M203.27,108.12h-115A85.09,85.09,0,0,0,3.23,193.2v43.46c0-21.07,13.89-51.36,49.94-52.57.72,0,1.45,0,2.18,0H70.08l.81,0h95.28Z"/></g></g></svg>